HIERARCHY
ROOT Hips
{
	OFFSET 62.890800 8.863803 43.568401
	CHANNELS 6 Xposition Yposition Zposition Zrotation Xrotation Yrotation
	JOINT Chest
	{
		OFFSET -0.160400 1.630001 7.806301
		CHANNELS 6 Xposition Yposition Zposition Zrotation Xrotation Yrotation
		JOINT Chest2
		{
			OFFSET 0.000000 0.000000 3.197998
			CHANNELS 6 Xposition Yposition Zposition Zrotation Xrotation Yrotation
			JOINT Neck
			{
				OFFSET 0.000000 0.000001 7.440701
				CHANNELS 6 Xposition Yposition Zposition Zrotation Xrotation Yrotation
				JOINT Head
				{
					OFFSET 0.000000 0.000000 2.173901
					CHANNELS 6 Xposition Yposition Zposition Zrotation Xrotation Yrotation
					End Site
					{
						OFFSET 0.000000 0.000001 10.420303
					}
				}
			}
			JOINT LeftCollar
			{
				OFFSET 2.426399 -1.880099 4.759399
				CHANNELS 6 Xposition Yposition Zposition Zrotation Xrotation Yrotation
				JOINT LeftShoulder
				{
					OFFSET 4.420197 0.000000 0.000000
					CHANNELS 6 Xposition Yposition Zposition Zrotation Xrotation Yrotation
					JOINT LeftElbow
					{
						OFFSET 0.000000 -0.000001 -10.347099
						CHANNELS 6 Xposition Yposition Zposition Zrotation Xrotation Yrotation
						JOINT LeftWrist
						{
							OFFSET 0.000000 -0.000001 -12.496300
							CHANNELS 6 Xposition Yposition Zposition Zrotation Xrotation Yrotation
							End Site
							{
								OFFSET 0.000000 0.000000 -2.173901
							}
						}
					}
				}
			}
			JOINT RightCollar
			{
				OFFSET -2.781502 -1.903799 5.072601
				CHANNELS 6 Xposition Yposition Zposition Zrotation Xrotation Yrotation
				JOINT RightShoulder
				{
					OFFSET -4.012100 0.000000 0.000000
					CHANNELS 6 Xposition Yposition Zposition Zrotation Xrotation Yrotation
					JOINT RightElbow
					{
						OFFSET 0.000000 -0.000001 -10.346600
						CHANNELS 6 Xposition Yposition Zposition Zrotation Xrotation Yrotation
						JOINT RightWrist
						{
							OFFSET 0.000000 -0.000001 -12.562599
							CHANNELS 6 Xposition Yposition Zposition Zrotation Xrotation Yrotation
							End Site
							{
								OFFSET 0.000000 0.000000 -2.173901
							}
						}
					}
				}
			}
		}
	}
	JOINT LeftHip
	{
		OFFSET 2.047997 -0.047200 -2.693199
		CHANNELS 6 Xposition Yposition Zposition Zrotation Xrotation Yrotation
		JOINT LeftKnee
		{
			OFFSET 0.000000 -0.000001 -18.824400
			CHANNELS 6 Xposition Yposition Zposition Zrotation Xrotation Yrotation
			JOINT LeftAnkle
			{
				OFFSET 0.000000 -0.000002 -19.078199
				CHANNELS 6 Xposition Yposition Zposition Zrotation Xrotation Yrotation
				End Site
				{
					OFFSET 0.000000 -9.342100 0.000001
				}
			}
		}
	}
	JOINT RightHip
	{
		OFFSET -2.129898 -0.022300 -2.538300
		CHANNELS 6 Xposition Yposition Zposition Zrotation Xrotation Yrotation
		JOINT RightKnee
		{
			OFFSET 0.000000 -0.000001 -18.644600
			CHANNELS 6 Xposition Yposition Zposition Zrotation Xrotation Yrotation
			JOINT RightAnkle
			{
				OFFSET 0.000000 -0.000002 -18.801399
				CHANNELS 6 Xposition Yposition Zposition Zrotation Xrotation Yrotation
				End Site
				{
					OFFSET 0.000000 -8.914600 0.000001
				}
			}
		}
	}
}
MOTION
Frames: 4
Frame Time: 0.041667
66.603096 33.926815 42.734974 -93.654680 1.209316 11.017491 -0.160403 1.630002 7.806306 -6.817404 8.339951 -4.230355 0.000004 0.000007 3.198007 2.171975 -6.282393 0.222571 -0.000012 0.000001 7.440698 27.257256 1.927137 -24.840052 -0.000003 -0.000005 2.173902 1.919511 0.190991 2.829888 2.426402 -1.880108 4.759403 -171.726515 183.045245 -189.065223 4.420196 -0.000003 -0.000001 -41.225731 -13.619194 -125.438364 0.000006 0.000011 -10.347094 610.007473 -160.449996 -534.766219 -0.000002 -0.000005 -12.496299 -127.443380 186.043070 171.233539 -2.781505 -1.903805 5.072612 -180.703528 -187.663272 176.692814 -4.012096 -0.000001 0.000000 16.442268 -6.624670 465.100912 0.000002 0.000009 -10.346605 -446.592247 -45.872428 -113.158497 0.000005 0.000001 -12.562609 1779.325587 703.574125 -713.692422 2.047988 -0.047202 -2.693198 401.486524 -36.885976 -14.172319 0.000001 -0.000002 -18.824411 177.925335 147.300488 -188.628228 -0.000004 -0.000004 -19.078201 -369.779611 20.318148 6.842597 -2.129905 -0.022290 -2.538299 -376.429047 -16.499884 6.746647 0.000005 -0.000001 -18.644596 -188.345526 -220.158608 178.482392 0.000002 -0.000002 -18.801395 195.131429 163.969893 190.576293
66.657600 33.967503 42.727173 -93.636559 1.168508 10.829209 -0.160403 1.630013 7.806295 -6.914310 8.325385 -4.036243 0.000013 -0.000007 3.198004 2.242938 -6.259047 0.231528 -0.000004 0.000005 7.440686 27.403446 1.994533 -24.706456 -0.000009 0.000005 2.173912 1.793689 0.182931 2.870478 2.426403 -1.880100 4.759385 -171.649156 183.038947 -188.945914 4.420194 0.000003 -0.000001 -41.718956 -13.229035 -125.480288 -0.000011 0.000014 -10.347095 610.133094 -160.154344 -534.575738 -0.000004 0.000004 -12.496302 -127.687764 186.118106 171.183761 -2.781500 -1.903798 5.072597 -180.698433 -187.676400 176.603571 -4.012099 -0.000006 -0.000000 17.449595 -6.464129 465.369694 0.000010 0.000004 -10.346607 -445.493843 -46.425359 -111.680881 0.000011 0.000000 -12.562606 1779.495303 703.321846 -714.401669 2.047998 -0.047194 -2.693199 401.272166 -36.685796 -14.162215 0.000001 0.000002 -18.824404 178.123383 147.408774 -188.650522 -0.000003 -0.000003 -19.078199 -369.722047 20.391748 6.852485 -2.129899 -0.022292 -2.538307 -377.195202 -16.935990 6.646978 0.000005 -0.000004 -18.644600 -186.448988 -220.765784 177.963871 0.000014 -0.000006 -18.801397 194.435910 164.387996 190.190374
66.714798 34.019611 42.716278 -93.604471 1.103747 10.629087 -0.160395 1.630008 7.806313 -7.049981 8.316617 -3.829974 0.000004 0.000008 3.198006 2.364287 -6.232831 0.242208 -0.000008 0.000015 7.440700 27.529685 2.080266 -24.564548 -0.000003 0.000007 2.173915 1.656970 0.180794 2.902282 2.426394 -1.880092 4.759408 -171.584187 183.015916 -188.782276 4.420205 -0.000019 0.000006 -42.207762 -12.818163 -125.405265 -0.000004 0.000009 -10.347097 610.289041 -159.635017 -534.269199 -0.000003 -0.000017 -12.496303 -127.963116 186.189154 171.128518 -2.781504 -1.903793 5.072607 -180.807757 -187.717709 176.937963 -4.012100 0.000000 -0.000004 18.618998 -6.382092 465.252105 -0.000004 0.000003 -10.346594 -444.006610 -46.532122 -109.705679 0.000004 -0.000002 -12.562590 1780.307167 703.204312 -715.577828 2.048004 -0.047197 -2.693186 400.724849 -36.373981 -14.356019 -0.000000 0.000000 -18.824400 178.312962 147.506145 -188.556402 0.000009 -0.000000 -19.078201 -369.443757 20.447590 6.895797 -2.129893 -0.022302 -2.538295 -378.048184 -17.413960 6.518777 0.000003 -0.000001 -18.644596 -184.585166 -221.452109 177.495197 -0.000000 0.000004 -18.801401 193.836630 164.824964 189.787516
66.773399 34.084705 42.701672 -93.554966 1.015581 10.427288 -0.160397 1.629996 7.806308 -7.145811 8.303505 -3.623555 -0.000001 -0.000003 3.197998 2.464477 -6.189226 0.253923 -0.000001 -0.000003 7.440701 27.613184 2.188829 -24.401909 -0.000010 0.000016 2.173903 1.534476 0.173344 2.971923 2.426401 -1.880093 4.759402 -171.555419 182.863412 -188.566756 4.420194 0.000000 0.000003 -42.837014 -12.339086 -125.521269 0.000007 0.000001 -10.347097 610.463129 -159.139105 -533.955503 -0.000000 -0.000005 -12.496302 -128.295828 186.274053 171.064465 -2.781502 -1.903797 5.072606 -180.899937 -187.777241 177.259870 -4.012096 -0.000008 0.000007 19.923945 -6.311599 465.153586 0.000002 0.000013 -10.346600 -442.539977 -46.949416 -107.608217 -0.000002 0.000001 -12.562583 1780.835113 703.103389 -716.553397 2.047994 -0.047201 -2.693187 400.247391 -36.094835 -14.529117 0.000001 0.000000 -18.824398 178.453732 147.580785 -188.460820 -0.000003 0.000001 -19.078201 -369.197133 20.514359 6.937395 -2.129895 -0.022303 -2.538295 -378.951217 -17.912525 6.347309 0.000005 0.000000 -18.644598 -182.425269 -222.224316 176.883485 0.000012 -0.000004 -18.801395 193.104078 165.373251 189.225924
